<?xml version="1.0" encoding="utf-8"?>
<!-- Generator: Adobe Illustrator 16.0.0, SVG Export Plug-In . SVG Version: 6.00 Build 0)  -->
<!DOCTYPE svg PUBLIC "-//W3C//DTD SVG 1.1//EN" "http://www.w3.org/Graphics/SVG/1.1/DTD/svg11.dtd">
<svg version="1.1" id="Capa_1" xmlns="http://www.w3.org/2000/svg" xmlns:xlink="http://www.w3.org/1999/xlink" x="0px" y="0px"
	 width="477.168px" height="549.44px" viewBox="0 0 477.168 549.44" enable-background="new 0 0 477.168 549.44"
	 xml:space="preserve">
<g id="DznO3c_1_">
	<g>
		<path fill-rule="evenodd" clip-rule="evenodd" fill="#EDDF4A" d="M477.072,275.154c0,44.328-0.056,88.656,0.097,132.984
			c0.014,3.889-1.259,5.89-4.567,7.79c-69.328,39.817-138.584,79.759-207.857,119.672c-7.359,4.241-14.764,8.408-22.079,12.724
			c-2.169,1.279-3.794,1.613-6.288,0.181C172.1,511.6,107.749,474.82,43.41,438.022c-13.157-7.525-26.275-15.122-39.521-22.488
			c-2.855-1.589-3.893-3.376-3.889-6.659c0.09-89.49,0.09-178.979,0-268.468c-0.003-3.286,1.075-5.03,3.898-6.653
			C80.577,89.678,157.207,45.517,233.812,1.315c2.661-1.535,4.648-1.889,7.621-0.183c77.286,44.357,154.641,88.593,232.045,132.743
			c2.961,1.688,3.658,3.654,3.652,6.795C477.044,185.498,477.072,230.326,477.072,275.154z M284.839,278.151
			c-1.196,0.067-3.365,0.116-5.52,0.321c-15.219,1.452-28.142,11.372-32.193,24.672c-5.81,19.07,1.515,36.725,19.354,47.197
			c9.943,5.838,21.14,9.037,30.996,15.018c6.264,3.802,8.777,8.349,7.708,14.324c-1.119,6.254-5.629,9.126-11.259,10.662
			c-11.836,3.229-23.98-0.999-31.192-11.42c-2.587-3.737-4.569-4.146-8.23-1.646c-4.526,3.091-9.39,5.719-14.245,8.288
			c-2.587,1.369-3.409,2.5-1.508,5.243c2.285,3.295,4.433,6.698,7.393,9.395c18.36,16.722,39.669,19.232,62.398,11.755
			c14.139-4.651,22.783-14.921,24.296-30.038c1.515-15.138-3.177-27.9-15.979-37.069c-7.93-5.678-16.833-9.421-25.668-13.32
			c-4.723-2.085-9.508-4.054-13.642-7.241c-4.345-3.349-6.026-8.544-4.494-13.807c1.327-4.557,5.479-7.795,10.861-8.203
			c7.438-0.564,13.429,2.141,17.385,8.562c1.606,2.607,2.966,2.896,5.491,1.12c4.763-3.353,9.643-6.582,14.708-9.449
			c3.3-1.867,2.915-3.511,1.096-6.202C313.751,283.238,301.166,277.922,284.839,278.151z M221.599,330.698
			c0.096,0,0.191,0,0.287-0.001c0-15.661-0.089-31.323,0.072-46.983c0.034-3.273-0.863-4.394-4.195-4.271
			c-6.322,0.234-12.671,0.297-18.987-0.016c-3.779-0.188-4.752,0.982-4.72,4.734c0.184,21.658,0.098,43.319,0.086,64.979
			c-0.005,9.164,0.182,18.336-0.145,27.488c-0.373,10.431-6.01,15.232-16.115,14.411c-6.977-0.567-10.973-5.166-14.126-10.646
			c-1.572-2.731-2.801-3.421-5.654-1.49c-4.959,3.356-10.09,6.517-15.397,9.282c-3.576,1.863-3.209,3.643-1.418,6.553
			c9.085,14.76,22.728,21.06,39.5,21.062c24.782,0.002,39.175-12.97,40.638-37.638C222.359,362.394,221.599,346.523,221.599,330.698
			z"/>
		<path fill-rule="evenodd" clip-rule="evenodd" fill="#363530" d="M284.839,278.151c16.326-0.229,28.912,5.087,37.755,18.161
			c1.819,2.691,2.204,4.335-1.096,6.202c-5.065,2.867-9.945,6.097-14.708,9.449c-2.525,1.776-3.885,1.487-5.491-1.12
			c-3.956-6.422-9.946-9.127-17.385-8.562c-5.382,0.408-9.534,3.646-10.861,8.203c-1.532,5.263,0.149,10.458,4.494,13.807
			c4.134,3.188,8.919,5.156,13.642,7.241c8.835,3.899,17.738,7.643,25.668,13.32c12.803,9.169,17.494,21.932,15.979,37.069
			c-1.513,15.117-10.157,25.387-24.296,30.038c-22.729,7.478-44.038,4.967-62.398-11.755c-2.96-2.696-5.107-6.1-7.393-9.395
			c-1.901-2.743-1.079-3.874,1.508-5.243c4.855-2.569,9.719-5.197,14.245-8.288c3.661-2.499,5.644-2.091,8.23,1.646
			c7.212,10.421,19.356,14.649,31.192,11.42c5.63-1.536,10.14-4.408,11.259-10.662c1.069-5.976-1.444-10.522-7.708-14.324
			c-9.856-5.98-21.053-9.18-30.996-15.018c-17.839-10.473-25.163-28.127-19.354-47.197c4.052-13.3,16.975-23.22,32.193-24.672
			C281.474,278.268,283.643,278.219,284.839,278.151z"/>
		<path fill-rule="evenodd" clip-rule="evenodd" fill="#363530" d="M221.599,330.698c0,15.825,0.76,31.695-0.175,47.465
			c-1.462,24.668-15.856,37.64-40.638,37.638c-16.772-0.002-30.415-6.302-39.5-21.062c-1.791-2.91-2.158-4.689,1.418-6.553
			c5.307-2.766,10.438-5.926,15.397-9.282c2.853-1.931,4.082-1.241,5.654,1.49c3.153,5.479,7.149,10.078,14.126,10.646
			c10.105,0.821,15.743-3.98,16.115-14.411c0.327-9.152,0.139-18.324,0.145-27.488c0.012-21.659,0.098-43.32-0.086-64.979
			c-0.032-3.752,0.941-4.922,4.72-4.734c6.315,0.312,12.665,0.25,18.987,0.016c3.333-0.123,4.229,0.997,4.195,4.271
			c-0.161,15.66-0.072,31.322-0.072,46.983C221.791,330.698,221.695,330.698,221.599,330.698z"/>
	</g>
</g>
<g>
	<g>
		<path fill="#363530" d="M154.515,256.44c0,2.75-2.25,5-5,5h-18.443c-2.75,0-5-2.25-5-5V124.613c0-2.75,2.25-5,5-5h18.443
			c2.75,0,5,2.25,5,5V256.44z"/>
	</g>
	<g>
		<path fill="#363530" d="M222.829,256.44c0,2.75-2.25,5-5,5h-18.444c-2.75,0-5-2.25-5-5v-86.693c0-2.75-2.25-5-5-5h-18.832
			c-2.75,0-5-2.25-5-5v-10.066c0-2.75,2.061-5.902,4.581-7.005l48.115-21.058c2.52-1.103,4.581,0.245,4.581,2.995V256.44z"/>
	</g>
	<g>
		<path fill="#363530" d="M337.64,156.044c2.75,0,5.188,2.242,5.418,4.982l0.431,5.134c0.229,2.74,1.841,3.24,3.581,1.11
			c0,0,4.66-5.706,9.793-8.693c5.128-2.986,10.875-4.481,17.24-4.481c10.649,0,18.961,3.345,24.938,10.033
			c5.974,6.69,8.961,17.177,8.961,31.463v60.848c0,2.75-2.25,5-5,5h-18.54c-2.75,0-5-2.25-5-5v-55.902
			c0-2.75-0.264-7.234-0.586-9.965c0,0-0.845-7.156-3.7-10.117c-2.859-2.963-7.176-4.443-12.956-4.443
			c-3.769,0-7.145,0.766-10.131,2.295c-2.987,1.53-5.489,3.694-7.5,6.492v71.641c0,2.75-2.25,5-5,5h-18.442c-2.75,0-5-2.25-5-5
			v-95.396c0-2.75,2.25-5,5-5H337.64z"/>
	</g>
	<g>
		<path fill="#363530" d="M210.072,218.992c-2,1.207-0.194,2.426-0.194,3.68c0,1.564-1.806,3.083,0.194,4.561V218.992z"/>
		<path fill="#363530" d="M299.314,202.411c-4.352-5.908-10.295-10.455-17.827-13.637c6.56-3.052,11.705-7.306,15.439-12.761
			c3.733-5.455,5.601-11.721,5.601-18.8c0-12.597-4.156-22.355-12.468-29.271c-8.312-6.916-19.527-10.374-32.971-10.374
			c-7.339,0-14.017,1.029-20.017,3.069v28.011c0.245-0.147,0.5-0.276,0.758-0.396c0.914-1.285,1.958-2.462,3.102-3.484
			c0.583-1.011,1.242-1.958,1.99-2.83c3.477-4.057,8.305-6.084,14.486-6.084c6.104,0,10.951,2.067,14.545,6.2
			c3.593,4.134,5.387,9.601,5.387,16.398c0,7.031-1.757,12.613-5.272,16.746c-3.515,4.134-8.323,6.2-14.427,6.2
			c-6.26,0-11.146-2.066-14.661-6.2c-1.205-1.417-2.17-3.033-2.955-4.797c-0.871-0.995-1.53-2.038-2.126-3.197
			c-0.292-0.133-0.566-0.286-0.827-0.451v42.926c0.267-0.073,0.535-0.126,0.805-0.169c1.634-1.913,3.521-3.562,5.652-4.861
			c3.525-3.295,8.182-4.965,13.728-4.965c5.91,0,10.801,1.912,14.502,5.734c3.703,3.823,5.595,8.908,5.595,15.257
			c0,6.414-1.797,11.501-5.435,15.259c-3.637,3.758-8.399,5.636-14.307,5.636c-6.039,0-11.213-1.861-14.849-5.587
			c-1.492-1.528-2.609-3.301-3.486-5.298c-0.437-0.328-0.858-0.68-1.259-1.066c-0.331-0.319-0.643-0.649-0.946-0.986v32.138
			c6,1.809,12.874,2.717,20.211,2.717c14.35,0,26.146-3.521,35.042-10.568c8.896-7.046,13.43-17.127,13.43-30.246
			C305.754,215.074,303.663,208.322,299.314,202.411z"/>
	</g>
</g>
</svg>
